<svg xmlns="http://www.w3.org/2000/svg" viewBox="0 0 20 14" fill="currentColor">
    <path d="M19,2H6A1,1,0,0,1,6,0H19a1,1,0,0,1,0,2Z"/>
    <path d="M19,8H6A1,1,0,0,1,6,6H19a1,1,0,0,1,0,2Z"/>
    <path d="M19,14H6a1,1,0,0,1,0-2H19a1,1,0,0,1,0,2Z"/>
    <path d="M1,2,.8,2a.64.64,0,0,1-.18-.06.76.76,0,0,1-.18-.09,1.58,1.58,0,0,1-.15-.12L.17,1.56a.76.76,0,0,1-.09-.18A.64.64,0,0,1,0,1.2,1.5,1.5,0,0,1,0,1,1,1,0,0,1,.08.62,1.15,1.15,0,0,1,.29.29,1,1,0,0,1,1.38.08a1,1,0,0,1,.33.21A1.05,1.05,0,0,1,2,1a1.5,1.5,0,0,1,0,.2.64.64,0,0,1-.06.18.76.76,0,0,1-.09.18l-.12.15A1.05,1.05,0,0,1,1,2Z"/>
    <path d="M1,8,.81,8a.6.6,0,0,1-.19-.06.76.76,0,0,1-.18-.09L.29,7.71A1,1,0,0,1,0,7a1,1,0,0,1,.08-.38,1,1,0,0,1,.21-.33l.15-.12a.76.76,0,0,1,.18-.09A.6.6,0,0,1,.81,6a1,1,0,0,1,.9.27,1,1,0,0,1,.21.33A1,1,0,0,1,2,7a1.5,1.5,0,0,1,0,.2.64.64,0,0,1-.06.18.76.76,0,0,1-.09.18l-.12.15A1.05,1.05,0,0,1,1,8Z"/>
    <path d="M1,14a1,1,0,0,1-.38-.08,1.15,1.15,0,0,1-.33-.21,1,1,0,0,1-.21-1.09,1,1,0,0,1,.21-.33,1,1,0,0,1,1.09-.21,1.15,1.15,0,0,1,.33.21,1.15,1.15,0,0,1,.21.33.94.94,0,0,1,0,.76,1.15,1.15,0,0,1-.21.33A1,1,0,0,1,1,14Z"/>
</svg>
