<svg xmlns="http://www.w3.org/2000/svg" viewBox="0 0 120 120"><path fill="#5468FF" d="M104.2 0H15.8C7.1 0 0 7 0 15.8v88.4c0 8.7 7.1 15.8 15.8 15.8h88.4c8.7 0 15.8-7.1 15.8-15.8V15.8C120 7.1 112.9 0 104.2 0z"/><path fill="#FFFFFF" d="M30.3 41.9C30.4 41.9 30.4 41.9 30.3 41.9c1.3-1.7 2.6-3.3 4.1-4.7 1.5-1.5 3-2.8 4.7-4 0.3-0.2 0.4-0.7 0.2-1 0 0 0-0.1-0.1-0.1l0 0 -2.1-2.1c-2-2-5.3-2-7.4 0l-2.5 2.5c-2 2-2 5.3 0 7.3 0 0 0 0 0 0l2 2C29.6 42.2 30 42.2 30.3 41.9z"/><path fill="#FFFFFF" d="M50.7 27.6c0.1 0 0.1 0 0.2 0 3.4-1 7-1.5 10.6-1.5 3.4 0 6.9 0.5 10.2 1.4 0.4 0.1 0.8-0.1 0.8-0.5 0-0.1 0-0.1 0-0.2v-4.1c0-2.9-2.3-5.2-5.2-5.2H55.2c-2.9 0-5.2 2.3-5.2 5.2v4.2C49.9 27.3 50.3 27.6 50.7 27.6z"/><path fill="#FFFFFF" d="M61.4 30.3c-18.7 0-33.9 15.2-33.9 33.9 0 18.7 15.2 33.9 33.9 33.9 18.7 0 33.9-15.2 33.9-33.9C95.3 45.5 80.1 30.3 61.4 30.3zM61.4 88.1L61.4 88.1c-13.2-0.1-23.9-10.8-23.8-24 0-13.2 10.8-23.9 23.9-23.8 13.2 0 23.9 10.8 23.8 23.9C85.3 77.4 74.6 88.1 61.4 88.1z"/><path fill="#FFFFFF" d="M62.1 44.5c-0.4 0-0.7 0.3-0.7 0.7l0 0.1V63c0 0.4 0.3 0.7 0.7 0.7 0.1 0 0.2 0 0.3-0.1l15.8-8.2c0.4-0.2 0.5-0.6 0.3-1 0 0 0 0 0 0C75.1 48.5 68.9 44.7 62.1 44.5z"/></svg>
