<svg xmlns="http://www.w3.org/2000/svg" viewBox="0 0 29.94 20"><path d="M6.94,1H3A3,3,0,0,0,0,4H0V16a3,3,0,0,0,3,3H6.94a3,3,0,0,0,3-3V4a3,3,0,0,0-3-3Zm1,15a1,1,0,0,1-1,1H3a1,1,0,0,1-1-1V4A1,1,0,0,1,3,3H6.94a1,1,0,0,1,1,1Z"/><path d="M26.94,1H23a3,3,0,0,0-3,3h0V16a3,3,0,0,0,3,3h3.94a3,3,0,0,0,3-3V4a3,3,0,0,0-3-3Zm1,15a1,1,0,0,1-1,1H23a1,1,0,0,1-1-1V4a1,1,0,0,1,1-1h3.94a1,1,0,0,1,1,1Z"/><path d="M15,2.4a1,1,0,0,1-1-1V1a1,1,0,0,1,2,0v.4A1,1,0,0,1,15,2.4Z"/><path d="M15,15.86a1,1,0,0,1-1-1v-.75a1,1,0,0,1,2,0v.75A1,1,0,0,1,15,15.86Zm0-4.49a1,1,0,0,1-1-1V9.63a1,1,0,0,1,2,0v.74A1,1,0,0,1,15,11.37Zm0-4.48a1,1,0,0,1-1-1V5.14a1,1,0,1,1,2,0v.75A1,1,0,0,1,15,6.89Z"/><path d="M15,20a1,1,0,0,1-1-1v-.4a1,1,0,0,1,2,0V19A1,1,0,0,1,15,20Z"/></svg>