<svg xmlns="http://www.w3.org/2000/svg" xmlns:xlink="http://www.w3.org/1999/xlink">
    <defs>
        <path
            d="M3.74 6.88l1.153.74a4.42 4.42 0 00-1.467 2.428l-.046.239h5.88l2.073 1.28H8.667v2.546c.004.226-.026.45-.087.667-.16.427-.42.487-.58.487a.627.627 0 01-.587-.447 2.16 2.16 0 01-.08-.498v-2.729H2.667A.667.667 0 012 10.927 5.64 5.64 0 013.74 6.88zM2.667 4.3A.667.667 0 013 4.4l2.273 1.407L6.54 6.6l6 3.713 1.12.667a.727.727 0 01.253.26.753.753 0 01.02.747.667.667 0 01-.566.346.667.667 0 01-.34-.1L12 11.567l-2.093-1.28-4.734-2.92L4 6.667 2.347 5.62a.74.74 0 01-.26-.953.667.667 0 01.58-.367zM4 1.28h7.993a.667.667 0 01.099 1.326l-.099.007H10.66v3.134a5.713 5.713 0 013.333 5.046l-.075-.068-.085-.058-1.293-.774A4.507 4.507 0 009.747 6.78a.667.667 0 01-.403-.497l-.01-.096V2.613H6.666v3.574l.002.04-.002.04-1.334-.82V2.613H4a.667.667 0 01-.11-1.324L4 1.28h7.993z"
            id="a"/>
    </defs>
    <g transform="translate(-2 -1)" fill="currentColor">
        <mask id="b" fill="currentColor">
            <use xlink:href="#a"/>
        </mask>
        <use xlink:href="#a"/>
        <g mask="url(#b)" fill="currentColor">
            <path d="M-8-8h32v32H-8z"/>
        </g>
    </g>
</svg>
